<?xml version="1.0" encoding="utf-8"?>
<svg version="1.1" id="Layer_1" xmlns="http://www.w3.org/2000/svg" x="0px" y="0px" width="100%" viewBox="0 0 800 800" enable-background="new 0 0 800 800">
  <defs>
    <linearGradient gradientUnits="userSpaceOnUse" x1="301.134" y1="29.231" x2="301.134" y2="585.971" id="gradient-0" gradientTransform="matrix(1.270328, 0.537206, -0.583267, 1.379249, 207.858981, -178.387423)">
      <stop offset="0" style="stop-color: rgb(250, 255, 206);"/>
      <stop offset="1" style="stop-color: rgb(193, 121, 107);"/>
    </linearGradient>
  </defs>
  <path opacity="1.000000" d="M 797.564 471.5 C 797.568 531.03 797.211 589.872 797.68 648.709 C 798.115 703.458 762.767 755.209 712.484 775.321 C 696.678 781.643 680.232 784.623 663.363 784.508 C 486.393 783.308 309.421 783.612 132.451 783.702 C 104.392 783.716 78.69 776.646 56.194 759.959 C 22.52 734.979 2.8 701.701 2.703 659.229 C 2.308 487.306 2.562 315.383 2.521 143.459 C 2.506 83.318 41.336 36.083 92.991 21.469 C 106.369 17.684 120.07 16.6 133.85 16.628 C 182.556 16.729 231.259 17.167 279.965 17.214 C 412.124 17.344 544.284 17.04 676.442 17.537 C 725.917 17.723 774.969 54.912 790.707 102.127 C 795.312 115.938 797.684 129.988 797.657 144.665 C 797.466 253.381 797.56 362.095 797.564 471.5 Z" style="stroke-width: 0px; fill-rule: nonzero; paint-order: fill; fill: url(&quot;#gradient-0&quot;);"/>
  <ellipse style="stroke: rgb(0, 0, 0); fill: rgb(220, 220, 220);" cx="619.234" cy="601.621" rx="172.932" ry="172.932"/>
  <path opacity="1.000000" stroke="none" d="M 797.521 471.504 C 797.524 531.034 797.167 589.877 797.635 648.714 C 798.072 703.461 762.723 755.213 712.439 775.325 C 696.633 781.647 680.187 784.626 663.319 784.511 C 486.35 783.313 309.377 783.615 132.406 783.706 C 104.348 783.719 78.647 776.651 56.15 759.964 C 22.476 734.983 2.756 701.705 2.659 659.233 C 2.265 487.311 2.518 315.387 2.476 143.463 C 2.462 83.323 41.292 36.088 92.947 21.474 C 106.324 17.69 120.025 16.604 133.806 16.633 C 182.511 16.733 231.215 17.172 279.921 17.219 C 412.08 17.347 544.24 17.044 676.398 17.541 C 725.874 17.728 774.925 54.915 790.664 102.131 C 795.268 115.942 797.64 129.993 797.615 144.669 C 797.423 253.384 797.516 362.099 797.521 471.504 M 38.73 614.256 C 38.774 631.034 38.792 647.811 38.884 664.588 C 38.9 667.335 38.914 670.146 39.468 672.815 C 48.578 716.729 85.098 746.925 129.784 746.983 C 250.219 747.142 370.654 747.095 491.089 747.062 C 493.644 747.061 496.528 748.064 498.953 745.756 C 428.648 678.736 414.809 600.742 453.915 511.647 C 446.754 511.647 440.379 511.683 434.004 511.638 C 424.868 511.575 422.16 508.732 422.315 499.611 C 422.451 491.582 422.732 483.547 422.557 475.523 C 422.36 466.484 424.575 463.942 433.649 463.908 C 452.945 463.835 472.242 463.716 491.539 463.788 C 494.086 463.797 495.916 462.956 497.739 461.442 C 525.119 438.705 555.832 423.445 591.402 418.097 C 613.728 414.74 635.936 414.884 657.793 419.521 C 695.559 427.532 728.05 445.875 755.534 473.033 C 756.917 474.4 757.917 476.444 760.395 476.427 C 761.706 473.996 761.084 471.429 761.085 468.988 C 761.15 360.274 761.17 251.561 761.176 142.848 C 761.176 138.713 761.585 134.464 760.808 130.462 C 751.605 83.068 713.939 52.702 670.362 52.603 C 489.94 52.189 309.517 52.455 129.094 52.427 C 119.136 52.426 109.517 53.992 100.018 56.958 C 63.15 68.472 38.795 103.914 38.791 138.492 C 38.773 296.621 38.755 454.749 38.73 614.256 M 623.543 715.269 C 627.683 714.99 629.76 717.77 631.516 720.825 C 634.718 726.393 637.842 732.007 640.9 737.655 C 643.173 741.852 646.645 743.444 651.232 742.674 C 658.351 741.478 664.86 738.671 670.981 734.913 C 673.356 733.455 674.686 731.358 674.042 728.554 C 672.382 721.315 673.639 713.813 672.199 706.645 C 671.143 701.39 673.035 698.278 677.035 695.667 C 679.15 694.286 681.496 693.14 683.304 691.429 C 687.375 687.581 691.294 688.186 695.751 690.737 C 701.924 694.27 708.336 697.38 714.614 700.732 C 718.282 702.688 721.194 702.774 724.12 699.003 C 727.772 694.295 731.855 689.936 735.263 684.999 C 737.867 681.227 738.086 678.033 734.864 674.518 C 729.742 668.932 724.818 663.164 719.849 657.439 C 718.029 655.343 716.148 653.203 717.547 650.07 C 721.171 641.962 722.807 631.726 735.593 633.527 C 736.877 633.709 738.279 632.798 739.631 632.788 C 761.289 632.631 761.251 631.656 761.066 606.314 C 761.038 602.504 759.622 600.349 755.995 599.247 C 749.635 597.316 743.434 594.779 736.993 593.206 C 729.036 591.263 728.216 584.846 726.517 578.631 C 724.9 572.71 727.422 569.15 732.227 566.135 C 737.863 562.599 743.227 558.629 748.686 554.812 C 752.677 552.021 753.481 548.815 751.193 544.154 C 748.265 538.188 745.59 532.132 742.191 526.376 C 739.767 522.271 737.186 521.084 732.611 522.597 C 725.227 525.039 717.587 526.716 710.21 529.182 C 706.534 530.41 704.029 529.482 701.603 526.936 C 699.544 524.775 697.531 522.54 695.264 520.611 C 692.099 517.921 691.975 515.103 693.578 511.429 C 696.509 504.706 698.743 497.676 701.773 491.003 C 703.933 486.249 702.759 483.103 698.608 480.556 C 693.131 477.195 687.598 473.921 682.204 470.433 C 678.749 468.2 675.99 468.539 673.099 471.496 C 667.801 476.915 662.386 482.231 656.827 487.384 C 649.519 494.154 637.688 490.985 634.616 481.565 C 633.836 479.172 633.051 476.777 632.412 474.345 C 627.358 455.077 629.7 456.593 606.727 456.725 C 601.715 456.754 599.005 459.009 597.724 463.489 C 595.959 469.661 594.235 475.845 592.591 482.05 C 589.742 492.796 578.253 496.729 569.611 489.844 C 567.815 488.414 566.161 486.81 564.41 485.322 C 545.913 469.595 550.856 469.222 529.517 485.023 C 525.26 488.175 524.574 491.653 526.724 496.276 C 529.623 502.515 532.249 508.88 535.064 515.158 C 535.818 516.841 536.673 518.316 535.967 520.348 C 532.82 529.409 525.433 533.936 515.962 532.383 C 514.383 532.123 512.86 531.458 511.278 531.278 C 487.305 528.545 492.599 522.429 481.91 546.76 C 481.633 547.391 481.353 548.024 481.022 548.627 C 478.65 552.944 479.414 556.484 483.53 559.304 C 489.021 563.067 494.435 566.944 499.96 570.657 C 502.116 572.107 503.98 573.451 504.276 576.406 C 505.501 588.614 503.544 592.13 492.375 597.101 C 490.488 597.94 488.606 598.788 486.721 599.634 C 468.359 607.88 468.359 607.88 472.169 627.405 C 472.257 627.855 472.284 628.32 472.407 628.76 C 473.475 632.6 475.404 635.299 479.914 635.542 C 485.866 635.863 491.855 636.193 497.728 637.139 C 513.053 639.603 518.833 653.987 509.629 666.273 C 508.803 667.376 508.021 668.512 507.204 669.621 C 493.723 687.924 493.825 688.046 510.517 703.8 C 514.167 707.246 517.519 707.651 521.605 705.238 C 527.341 701.85 532.986 698.288 538.868 695.173 C 546.297 691.235 561.641 699.851 562.1 708.327 C 562.433 714.481 562.655 720.811 561.591 726.827 C 560.32 734.004 562.399 738.246 569.223 740.495 C 572.047 741.427 574.666 742.982 577.492 743.91 C 589.638 747.902 591.456 747.078 597.228 735.471 C 598.353 733.21 599.77 731.065 600.648 728.715 C 604.429 718.587 611.184 713.436 623.543 715.269 Z" style="fill: rgb(25, 36, 49);"/>
  <g style="" transform="matrix(1.379249, 0, 0, 1.379249, -153.101031, -131.227358)">
    <path opacity="1.000000" stroke="none" d=" M498.000000,247.832764 C525.996094,247.823578 553.492126,247.805725 580.988220,247.812790 C591.585754,247.815506 594.171997,250.448685 594.152161,261.086487 C594.144043,265.419159 594.223083,269.754639 594.092712,274.083740 C593.942871,279.057312 591.397156,281.804108 586.446960,282.147858 C582.964111,282.389709 579.451721,282.210205 575.952515,282.212036 C512.461548,282.245300 448.970551,282.278687 385.479584,282.308533 C378.041901,282.312012 376.358826,280.823212 376.521545,273.192291 C376.656219,266.877747 375.446472,260.596802 376.476562,254.251648 C377.165283,250.009369 379.545746,248.143784 383.518372,247.941147 C386.677521,247.779984 389.848572,247.825577 393.014343,247.825378 C427.842896,247.823059 462.671448,247.829773 498.000000,247.832764 z" style="fill: rgb(43, 63, 86);"/>
    <path opacity="1.000000" stroke="none" d=" M294.000000,375.196472 C266.835144,375.192444 240.170273,375.193939 213.505417,375.180237 C203.932678,375.175293 200.175095,371.471344 200.125061,361.934845 C200.102356,357.604492 199.981598,353.253143 200.341263,348.947754 C200.800323,343.452911 203.397873,340.884308 208.814499,340.176270 C211.280762,339.853912 213.802155,339.874390 216.298584,339.873474 C276.461090,339.851257 336.623627,339.843658 396.786133,339.855438 C398.778290,339.855835 400.801422,339.906952 402.756073,340.246063 C406.915314,340.967743 409.222015,343.485565 409.257172,347.801147 C409.303375,353.466949 409.311859,359.133545 409.275879,364.799408 C409.222931,373.141815 407.202271,375.190552 398.993073,375.193237 C364.162048,375.204742 329.331024,375.196838 294.000000,375.196472 z" style="fill: rgb(43, 63, 86);"/>
    <path opacity="1.000000" d=" M362.320007,270.869751 C358.576111,291.301453 342.432526,304.315643 321.399994,304.276337 C302.206757,304.240479 284.854553,290.089996 282.019501,271.072449 C278.719055,248.933014 290.156372,230.824600 311.181793,224.353973 C329.136780,218.828308 351.141388,229.607849 359.359467,247.449112 C362.813965,254.948792 362.462738,262.629883 362.320007,270.869751 z" style="fill: rgb(240, 240, 240);"/>
    <path opacity="1.000000" d=" M498.778870,373.575836 C488.726166,393.412689 471.910736,400.624146 453.840118,396.530670 C433.777649,391.985931 421.573212,374.344849 423.917633,354.155914 C425.610718,339.575500 434.827667,327.280182 452.497498,322.400879 C477.826172,315.406647 503.945038,335.412567 502.067139,361.754700 C501.778473,365.804108 500.448639,369.531952 498.778870,373.575836 z" style="fill: rgb(240, 240, 240);"/>
    <path opacity="1.000000" d=" M358.439819,486.167847 C341.446167,482.435242 330.306213,472.290833 327.181091,455.872986 C323.161591,434.756714 335.300232,416.804077 355.050049,411.339661 C376.292175,405.462311 398.415039,418.468018 402.777649,440.087891 C406.795685,460.000275 394.789612,477.556976 376.101196,484.303497 C370.471008,486.335968 364.711243,486.359589 358.439819,486.167847 z" style="fill: rgb(240, 240, 240);"/>
    <path opacity="1.000000" stroke="none" d=" M212.167648,431.671875 C242.767395,431.671356 272.889008,431.662872 303.010651,431.676575 C310.127747,431.679810 312.121643,433.697510 312.170929,440.893646 C312.208557,446.385162 312.191132,451.877167 312.179077,457.368927 C312.164154,464.150269 310.437836,466.008057 303.647491,466.021362 C284.010345,466.059814 264.373047,465.996521 244.735794,465.979767 C233.419418,465.970093 222.102356,466.048737 210.786926,465.944672 C202.843018,465.871613 200.473480,463.243744 200.496979,455.388184 C200.508911,451.402100 200.078918,447.415436 200.066208,443.428345 C200.038361,434.702026 202.956375,431.814056 212.167648,431.671875 z" style="fill: rgb(43, 63, 86);"/>
    <path opacity="1.000000" stroke="none" d=" M523.732239,374.328918 C517.179626,373.377747 515.844971,371.984131 515.766174,366.018799 C515.684937,359.866180 515.676758,353.711060 515.751221,347.558441 C515.810425,342.665833 518.048950,339.977905 522.976013,339.940460 C543.430542,339.784882 563.889099,339.729462 584.341858,339.981659 C591.171082,340.065857 594.080566,343.669525 594.141113,350.535889 C594.182190,355.192230 594.209229,359.851044 594.107544,364.505798 C593.976440,370.515411 590.499451,374.242065 584.510193,374.279266 C564.389771,374.404266 544.268250,374.345520 523.732239,374.328918 z" style="fill: rgb(43, 63, 86);"/>
    <path opacity="1.000000" stroke="none" d=" M242.000000,248.759979 C249.159409,248.762131 255.819717,248.832993 262.477905,248.743271 C267.065826,248.681458 269.215057,250.750778 269.163086,255.371490 C269.086334,262.196259 269.265533,269.024353 269.155304,275.848145 C269.069366,281.167511 267.183868,283.049347 261.812744,283.068939 C244.665115,283.131470 227.516617,283.139984 210.369431,283.024780 C204.123917,282.982788 200.396973,279.340881 200.188980,273.134460 C200.010773,267.817566 200.001633,262.468384 200.381561,257.166718 C200.783798,251.553391 203.914917,248.848938 209.534897,248.807144 C220.189468,248.727905 230.844910,248.769073 242.000000,248.759979 z" style="fill: rgb(43, 63, 86);"/>
    <path opacity="1.000000" stroke="none" d=" M516.813171,513.031799 C525.312195,496.200958 541.994324,485.350372 563.988953,487.824310 C579.615967,489.582001 595.793152,504.656647 599.947021,521.309265 C606.496277,547.565002 586.912415,574.821838 559.830811,576.065369 C539.918091,576.979797 521.796387,565.468811 514.837952,544.855347 C511.220825,534.140076 511.891144,523.625183 516.813171,513.031799 z" style="fill: rgb(43, 63, 86);"/>
  </g>
  <path d="M 454.376 511.431 C 447.214 511.431 440.84 511.467 434.466 511.422 C 425.329 511.359 422.621 508.516 422.777 499.395 C 422.912 491.365 423.193 483.331 423.018 475.307 C 422.82 466.268 425.036 463.725 434.11 463.691 C 453.407 463.62 472.703 463.501 492 463.571 C 492.029 463.571 492.057 463.571 492.087 463.571 C 476.804 477.602 463.858 494.136 453.898 512.524 C 454.055 512.16 454.215 511.795 454.376 511.431 Z" style="stroke: rgb(43, 63, 86); stroke-width: 0px; fill: rgb(43, 63, 86);"/>
  <path d="M 603.457 362.914 C 535.047 399.257 496.568 414.219 432.435 427.047 L 432.435 555.315 C 432.435 666.479 509.394 749.852 603.457 769.092 C 697.519 749.852 774.48 666.479 774.48 555.315 L 774.48 427.047 C 710.345 414.219 671.865 399.257 603.457 362.914 Z" style="stroke-width: 23px; stroke: rgb(149, 149, 149); fill: rgb(27, 27, 27);"/>
  <rect x="418.415" y="545.454" width="318.864" height="42.027" style="stroke: rgb(0, 0, 0); fill: rgb(216, 216, 216); stroke-width: 0px;" transform="matrix(1, 0, 0.006029, 1, 22.337977, -20.279978)"/>
</svg>