<?xml version="1.0" encoding="utf-8"?>
<svg version="1.1" id="Layer_1" xmlns="http://www.w3.org/2000/svg" x="0px" y="0px" width="100%" viewBox="0 0 800 800" enable-background="new 0 0 800 800">
  <path opacity="1.000000" stroke="none" d=" M689.231445,437.000000 C689.233948,480.161011 688.975342,522.824097 689.314941,565.482422 C689.630920,605.176758 664.001892,642.697937 627.544739,657.280212 C616.084900,661.863892 604.161011,664.023682 591.931458,663.940735 C463.622467,663.070984 335.311920,663.290527 207.001907,663.356140 C186.658783,663.366516 168.024490,658.241333 151.714233,646.142151 C127.299057,628.030640 113.001190,603.903442 112.930687,573.109741 C112.645302,448.460205 112.828995,323.809723 112.798630,199.159592 C112.788002,155.555878 140.941223,121.308937 178.392990,110.713326 C188.091644,107.969452 198.025589,107.182678 208.016754,107.203247 C243.329529,107.275917 278.641937,107.594101 313.954651,107.628418 C409.774414,107.721542 505.595062,107.501381 601.413635,107.862190 C637.284912,107.997269 672.849426,134.959671 684.260010,169.192032 C687.598022,179.206161 689.318115,189.393478 689.299316,200.034271 C689.160400,278.855957 689.228455,357.678040 689.231445,437.000000 M139.083328,540.500000 C139.114975,552.664062 139.129105,564.828308 139.195770,576.992126 C139.206680,578.983459 139.217606,581.021484 139.619110,582.956909 C146.224228,614.796204 172.702026,636.688843 205.100922,636.731323 C292.420166,636.845764 379.739655,636.812195 467.059021,636.788635 C468.911041,636.788086 471.002502,637.514648 472.760498,635.841370 C421.786865,587.249817 411.753510,530.701965 440.106262,466.104614 C434.913910,466.104614 430.291962,466.130615 425.670380,466.098419 C419.045624,466.052246 417.083160,463.991974 417.195343,457.378601 C417.294098,451.557068 417.497833,445.731293 417.371033,439.913605 C417.228180,433.359863 418.834229,431.516815 425.412750,431.492065 C439.403381,431.439392 453.394226,431.353302 467.384521,431.405151 C469.231750,431.412018 470.558289,430.802155 471.879791,429.704803 C491.731842,413.219299 513.999878,402.155731 539.789001,398.278076 C555.976074,395.844238 572.077454,395.948669 587.924133,399.310089 C615.306091,405.118378 638.863098,418.417999 658.789856,438.108307 C659.792542,439.099060 660.517639,440.581604 662.314270,440.569489 C663.265137,438.806915 662.813416,436.945801 662.814453,435.175415 C662.862061,356.354706 662.876038,277.533966 662.880554,198.713226 C662.880737,195.715683 663.177429,192.635025 662.613953,189.733292 C655.941772,155.371078 628.632080,133.355453 597.037659,133.282974 C466.225861,132.982895 335.412933,133.175430 204.600418,133.155396 C197.380814,133.154282 190.406372,134.290283 183.519699,136.440872 C156.788895,144.788544 139.131134,170.484848 139.128204,195.555069 C139.114777,310.203369 139.101349,424.851685 139.083328,540.500000 M563.092163,613.737488 C566.093933,613.534668 567.599731,615.551086 568.873169,617.765686 C571.194397,621.802551 573.459351,625.873047 575.676697,629.968079 C577.324280,633.010925 579.842346,634.164978 583.167358,633.606628 C588.329163,632.739990 593.047791,630.705017 597.486023,627.980347 C599.207825,626.923340 600.172241,625.402527 599.705933,623.369385 C598.501953,618.120728 599.413086,612.681885 598.368774,607.484131 C597.603577,603.674866 598.975708,601.418335 601.875183,599.525330 C603.409180,598.523865 605.109985,597.692871 606.421509,596.452820 C609.372498,593.662598 612.213379,594.101685 615.445068,595.951294 C619.920410,598.512634 624.570007,600.767761 629.122009,603.197144 C631.780884,604.616150 633.892029,604.677856 636.013428,601.943787 C638.661560,598.531006 641.621948,595.369690 644.093079,591.790283 C645.981140,589.055420 646.140076,586.739868 643.803528,584.191162 C640.090393,580.140991 636.519653,575.959595 632.917419,571.808716 C631.598083,570.288391 630.233582,568.736816 631.248291,566.466064 C633.875549,560.587402 635.061707,553.165344 644.332092,554.472290 C645.262756,554.603455 646.279968,553.943176 647.259033,553.936096 C662.962463,553.822266 662.934692,553.115051 662.800659,534.741272 C662.780518,531.979675 661.753967,530.416748 659.124146,529.618042 C654.512390,528.217468 650.017151,526.378235 645.347290,525.237915 C639.578003,523.829163 638.983765,519.176453 637.752136,514.670044 C636.578979,510.377472 638.407532,507.796112 641.891602,505.610443 C645.977905,503.046936 649.867371,500.168060 653.824829,497.401154 C656.718872,495.377808 657.301453,493.052917 655.642822,489.673828 C653.519409,485.348114 651.580261,480.957489 649.116089,476.783966 C647.358704,473.807465 645.487061,472.946899 642.170105,474.044006 C636.815735,475.815033 631.276794,477.030212 625.928711,478.817841 C623.263306,479.708710 621.447205,479.036133 619.688416,477.190399 C618.195007,475.623138 616.736023,474.002045 615.091980,472.604523 C612.797424,470.653992 612.707520,468.610565 613.869324,465.946075 C615.994568,461.072388 617.614807,455.975037 619.812012,451.137390 C621.377747,447.690277 620.526917,445.409424 617.516602,443.562439 C613.545715,441.126007 609.534363,438.751953 605.622986,436.223328 C603.118408,434.604156 601.118408,434.850098 599.022278,436.994019 C595.180481,440.923370 591.254272,444.777893 587.223572,448.512909 C581.925720,453.422119 573.347595,451.124725 571.120483,444.294312 C570.554932,442.559784 569.985596,440.822540 569.522949,439.059021 C565.858032,425.089874 567.556091,426.189453 550.900391,426.284851 C547.266479,426.305664 545.301453,427.940704 544.372253,431.188751 C543.092346,435.663269 541.842773,440.147278 540.650513,444.645844 C538.585571,452.436737 530.255920,455.289001 523.989502,450.296600 C522.688110,449.259796 521.487793,448.096954 520.218872,447.018127 C506.807465,435.616058 510.392029,435.344788 494.920319,446.801056 C491.833588,449.086639 491.336761,451.608490 492.895020,454.961029 C494.997101,459.483643 496.900421,464.098267 498.941467,468.649872 C499.488739,469.870300 500.108826,470.940063 499.596924,472.413727 C497.314911,478.983185 491.959534,482.265411 485.092529,481.138550 C483.947052,480.950531 482.843384,480.468994 481.695892,480.338165 C464.315002,478.356750 468.153198,473.922180 460.403839,491.562531 C460.202911,492.019958 460.000214,492.479126 459.759918,492.916382 C458.040222,496.046326 458.593628,498.613098 461.577789,500.657532 C465.559723,503.385498 469.485168,506.196655 473.490509,508.889343 C475.053162,509.939972 476.405396,510.915161 476.620239,513.057678 C477.507843,521.908447 476.089020,524.457458 467.990509,528.061279 C466.622803,528.669861 465.258057,529.285095 463.892426,529.898315 C450.578369,535.877075 450.578552,535.877075 453.341431,550.032898 C453.405151,550.359375 453.424866,550.696777 453.513550,551.015625 C454.287872,553.799805 455.686615,555.756470 458.957062,555.932678 C463.272034,556.165222 467.613800,556.405029 471.871979,557.089905 C482.983826,558.876831 487.173401,569.305908 480.500580,578.213379 C479.901581,579.012939 479.335358,579.837036 478.742737,580.641541 C468.967865,593.911316 469.042389,594.000000 481.144226,605.422180 C483.791046,607.920349 486.221100,608.213989 489.183777,606.464539 C493.342773,604.008667 497.435791,601.426025 501.699554,599.166565 C507.085876,596.312195 518.210571,602.559204 518.543518,608.703613 C518.785278,613.165588 518.946350,617.755493 518.174438,622.116882 C517.253296,627.320923 518.761047,630.395874 523.708252,632.027527 C525.756042,632.702881 527.655029,633.829651 529.703308,634.502930 C538.510071,637.397522 539.828308,636.799561 544.013367,628.384949 C544.828857,626.745422 545.856323,625.190063 546.492371,623.486328 C549.233398,616.143433 554.130981,612.408264 563.092163,613.737488 z" style="fill: rgb(35, 43, 52);"/>
  <path opacity="1.000000" stroke="none" d=" M498.000000,247.832764 C525.996094,247.823578 553.492126,247.805725 580.988220,247.812790 C591.585754,247.815506 594.171997,250.448685 594.152161,261.086487 C594.144043,265.419159 594.223083,269.754639 594.092712,274.083740 C593.942871,279.057312 591.397156,281.804108 586.446960,282.147858 C582.964111,282.389709 579.451721,282.210205 575.952515,282.212036 C512.461548,282.245300 448.970551,282.278687 385.479584,282.308533 C378.041901,282.312012 376.358826,280.823212 376.521545,273.192291 C376.656219,266.877747 375.446472,260.596802 376.476562,254.251648 C377.165283,250.009369 379.545746,248.143784 383.518372,247.941147 C386.677521,247.779984 389.848572,247.825577 393.014343,247.825378 C427.842896,247.823059 462.671448,247.829773 498.000000,247.832764 z" style="fill: rgb(35, 43, 52);"/>
  <path opacity="1.000000" stroke="none" d=" M294.000000,375.196472 C266.835144,375.192444 240.170273,375.193939 213.505417,375.180237 C203.932678,375.175293 200.175095,371.471344 200.125061,361.934845 C200.102356,357.604492 199.981598,353.253143 200.341263,348.947754 C200.800323,343.452911 203.397873,340.884308 208.814499,340.176270 C211.280762,339.853912 213.802155,339.874390 216.298584,339.873474 C276.461090,339.851257 336.623627,339.843658 396.786133,339.855438 C398.778290,339.855835 400.801422,339.906952 402.756073,340.246063 C406.915314,340.967743 409.222015,343.485565 409.257172,347.801147 C409.303375,353.466949 409.311859,359.133545 409.275879,364.799408 C409.222931,373.141815 407.202271,375.190552 398.993073,375.193237 C364.162048,375.204742 329.331024,375.196838 294.000000,375.196472 z" style="fill: rgb(35, 43, 52);"/>
  <path opacity="1.000000" stroke="none" d=" M362.320007,270.869751 C358.576111,291.301453 342.432526,304.315643 321.399994,304.276337 C302.206757,304.240479 284.854553,290.089996 282.019501,271.072449 C278.719055,248.933014 290.156372,230.824600 311.181793,224.353973 C329.136780,218.828308 351.141388,229.607849 359.359467,247.449112 C362.813965,254.948792 362.462738,262.629883 362.320007,270.869751 z" style="fill: rgb(83, 36, 168);"/>
  <path opacity="1.000000" stroke="none" d=" M498.778870,373.575836 C488.726166,393.412689 471.910736,400.624146 453.840118,396.530670 C433.777649,391.985931 421.573212,374.344849 423.917633,354.155914 C425.610718,339.575500 434.827667,327.280182 452.497498,322.400879 C477.826172,315.406647 503.945038,335.412567 502.067139,361.754700 C501.778473,365.804108 500.448639,369.531952 498.778870,373.575836 z" style="fill: rgb(83, 36, 168);"/>
  <path opacity="1.000000" stroke="none" d=" M358.439819,486.167847 C341.446167,482.435242 330.306213,472.290833 327.181091,455.872986 C323.161591,434.756714 335.300232,416.804077 355.050049,411.339661 C376.292175,405.462311 398.415039,418.468018 402.777649,440.087891 C406.795685,460.000275 394.789612,477.556976 376.101196,484.303497 C370.471008,486.335968 364.711243,486.359589 358.439819,486.167847 z" style="fill: rgb(83, 36, 168);"/>
  <path opacity="1.000000" stroke="none" d=" M212.167648,431.671875 C242.767395,431.671356 272.889008,431.662872 303.010651,431.676575 C310.127747,431.679810 312.121643,433.697510 312.170929,440.893646 C312.208557,446.385162 312.191132,451.877167 312.179077,457.368927 C312.164154,464.150269 310.437836,466.008057 303.647491,466.021362 C284.010345,466.059814 264.373047,465.996521 244.735794,465.979767 C233.419418,465.970093 222.102356,466.048737 210.786926,465.944672 C202.843018,465.871613 200.473480,463.243744 200.496979,455.388184 C200.508911,451.402100 200.078918,447.415436 200.066208,443.428345 C200.038361,434.702026 202.956375,431.814056 212.167648,431.671875 z" style="fill: rgb(35, 43, 52);"/>
  <path opacity="1.000000" stroke="none" d=" M523.732239,374.328918 C517.179626,373.377747 515.844971,371.984131 515.766174,366.018799 C515.684937,359.866180 515.676758,353.711060 515.751221,347.558441 C515.810425,342.665833 518.048950,339.977905 522.976013,339.940460 C543.430542,339.784882 563.889099,339.729462 584.341858,339.981659 C591.171082,340.065857 594.080566,343.669525 594.141113,350.535889 C594.182190,355.192230 594.209229,359.851044 594.107544,364.505798 C593.976440,370.515411 590.499451,374.242065 584.510193,374.279266 C564.389771,374.404266 544.268250,374.345520 523.732239,374.328918 z" style="fill: rgb(35, 43, 52);"/>
  <path opacity="1.000000" stroke="none" d=" M242.000000,248.759979 C249.159409,248.762131 255.819717,248.832993 262.477905,248.743271 C267.065826,248.681458 269.215057,250.750778 269.163086,255.371490 C269.086334,262.196259 269.265533,269.024353 269.155304,275.848145 C269.069366,281.167511 267.183868,283.049347 261.812744,283.068939 C244.665115,283.131470 227.516617,283.139984 210.369431,283.024780 C204.123917,282.982788 200.396973,279.340881 200.188980,273.134460 C200.010773,267.817566 200.001633,262.468384 200.381561,257.166718 C200.783798,251.553391 203.914917,248.848938 209.534897,248.807144 C220.189468,248.727905 230.844910,248.769073 242.000000,248.759979 z" style="fill: rgb(35, 43, 52);"/>
  <path opacity="1.000000" stroke="none" d=" M516.813171,513.031799 C525.312195,496.200958 541.994324,485.350372 563.988953,487.824310 C579.615967,489.582001 595.793152,504.656647 599.947021,521.309265 C606.496277,547.565002 586.912415,574.821838 559.830811,576.065369 C539.918091,576.979797 521.796387,565.468811 514.837952,544.855347 C511.220825,534.140076 511.891144,523.625183 516.813171,513.031799 z" style="fill: rgb(36, 44, 52);"/>
</svg>